<?xml version="1.0" encoding="utf-8"?>
<!-- Generator: Adobe Illustrator 25.1.0, SVG Export Plug-In . SVG Version: 6.00 Build 0)  -->
<svg version="1.0" id="Слой_1" xmlns="http://www.w3.org/2000/svg" xmlns:xlink="http://www.w3.org/1999/xlink" x="0px" y="0px"
	 viewBox="0 0 27 27" style="enable-background:new 0 0 27 27;" xml:space="preserve">
<style type="text/css">
	.st0{fill:#7C7474;}
</style>
<path class="st0" d="M3,2.9L1.9,4l5.6,5.6c0,0,0,0.1,0,0.1l1.5,1.5v-0.1l3.7,3.7h-0.1l1.9,1.9c0,0,0.1,0,0.1,0l0.3,0.3l1.2,1.2
	l3.3,3.3v0l1.5,1.5h0l2.1,2.1l1.1-1.1l-3.4-3.4c-0.7-2.3-2.4-4.2-4.6-5.1c1.5-1.1,2.5-2.8,2.5-4.7c0-3.2-2.5-5.7-5.7-5.7
	c-2.1,0-3.9,1.1-4.9,2.8L3,2.9z M13,6.7c2.3,0,4.1,1.8,4.1,4.1c0,1.7-1,3.1-2.4,3.7L9.3,9.1C9.9,7.7,11.3,6.7,13,6.7z M7.5,11.8
	c0.3,1.5,1.1,2.8,2.4,3.7c-1.5,0.6-2.8,1.6-3.7,3c-0.9,1.3-1.4,2.9-1.4,4.5h1.6c0-2.4,1.2-4.4,3.1-5.5c0.6,1.3,1.9,2.3,3.4,2.3
	c0.7,0,1.3-0.2,1.8-0.5L13.6,18c-0.2,0.1-0.4,0.1-0.6,0.1c-0.9,0-1.6-0.6-1.9-1.4l1-0.2L7.5,11.8z"/>
</svg>
