<svg width="27" height="27" viewBox="0 0 27 27" fill="none" xmlns="http://www.w3.org/2000/svg">
<path d="M22.6549 20.8125V12.3935C22.9569 12.6084 23.3781 12.556 23.6174 12.2654C23.8676 11.9617 23.8241 11.5127 23.5203 11.2625L13.9578 3.3875C13.6947 3.17083 13.3151 3.17083 13.052 3.3875L3.48946 11.2625C3.1857 11.5127 3.14225 11.9617 3.3924 12.2654C3.63167 12.556 4.05289 12.6084 4.3549 12.3935V20.8125C4.3549 22.4486 5.68125 23.775 7.3174 23.775H10.6924C11.0859 23.775 11.4049 23.456 11.4049 23.0625V16.3125C11.4049 16.0847 11.5896 15.9 11.8174 15.9H15.1924C15.4202 15.9 15.6049 16.0847 15.6049 16.3125V23.0625C15.6049 23.456 15.9239 23.775 16.3174 23.775H19.6924C21.3285 23.775 22.6549 22.4486 22.6549 20.8125ZM17.0299 22.35V16.3125C17.0299 15.2977 16.2072 14.475 15.1924 14.475H11.8174C10.8026 14.475 9.9799 15.2977 9.9799 16.3125V22.35H7.3174C6.46826 22.35 5.7799 21.6616 5.7799 20.8125V11.25C5.7799 11.2409 5.77973 11.2318 5.77938 11.2227L13.5049 4.86051L21.2304 11.2227C21.2301 11.2318 21.2299 11.2409 21.2299 11.25V20.8125C21.2299 21.6616 20.5415 22.35 19.6924 22.35H17.0299Z" fill="white" stroke="white" stroke-width="0.3"/>
</svg>
