<svg width="156" height="28" viewBox="0 0 156 28" fill="none" xmlns="http://www.w3.org/2000/svg">
<path d="M0.162625 27V1.296H7.11063V21.384H17.0106V27H0.162625ZM44.4606 14.112C44.4606 16.776 44.0286 19.104 43.1646 21.096C42.3246 23.064 40.9806 24.6 39.1326 25.704C37.3086 26.808 34.9206 27.36 31.9686 27.36C29.0886 27.36 26.7246 26.808 24.8766 25.704C23.0286 24.6 21.6606 23.052 20.7726 21.06C19.9086 19.068 19.4766 16.74 19.4766 14.076C19.4766 11.412 19.9206 9.096 20.8086 7.128C21.6966 5.136 23.0646 3.6 24.9126 2.52C26.7606 1.44 29.1246 0.899999 32.0046 0.899999C34.9326 0.899999 37.3086 1.452 39.1326 2.556C40.9806 3.636 42.3246 5.172 43.1646 7.164C44.0286 9.132 44.4606 11.448 44.4606 14.112ZM26.7846 14.112C26.7846 16.44 27.1806 18.264 27.9726 19.584C28.7886 20.904 30.1206 21.564 31.9686 21.564C33.8886 21.564 35.2326 20.904 36.0006 19.584C36.7686 18.264 37.1526 16.44 37.1526 14.112C37.1526 11.784 36.7686 9.948 36.0006 8.604C35.2326 7.26 33.9006 6.588 32.0046 6.588C30.1086 6.588 28.7646 7.26 27.9726 8.604C27.1806 9.948 26.7846 11.784 26.7846 14.112ZM59.4321 11.952H70.5201V25.812C69.2001 26.268 67.6761 26.64 65.9481 26.928C64.2441 27.216 62.4561 27.36 60.5841 27.36C58.1121 27.36 55.9401 26.88 54.0681 25.92C52.2201 24.96 50.7681 23.496 49.7121 21.528C48.6801 19.56 48.1641 17.076 48.1641 14.076C48.1641 11.388 48.6801 9.06 49.7121 7.092C50.7441 5.124 52.2561 3.612 54.2481 2.556C56.2641 1.476 58.7361 0.935999 61.6641 0.935999C63.2721 0.935999 64.7961 1.092 66.2361 1.404C67.6761 1.692 68.9241 2.076 69.9801 2.556L67.7841 7.992C66.8721 7.536 65.9121 7.2 64.9041 6.984C63.8961 6.744 62.8281 6.624 61.7001 6.624C60.1641 6.624 58.9281 6.972 57.9921 7.668C57.0561 8.364 56.3721 9.288 55.9401 10.44C55.5321 11.592 55.3281 12.864 55.3281 14.256C55.3281 16.656 55.8321 18.492 56.8401 19.764C57.8481 21.012 59.2881 21.636 61.1601 21.636C61.5681 21.636 62.0601 21.612 62.6361 21.564C63.2361 21.492 63.6921 21.42 64.0041 21.348V17.316H59.4321V11.952ZM99.7966 14.112C99.7966 16.776 99.3646 19.104 98.5006 21.096C97.6606 23.064 96.3166 24.6 94.4686 25.704C92.6446 26.808 90.2566 27.36 87.3046 27.36C84.4246 27.36 82.0606 26.808 80.2126 25.704C78.3646 24.6 76.9966 23.052 76.1086 21.06C75.2446 19.068 74.8126 16.74 74.8126 14.076C74.8126 11.412 75.2566 9.096 76.1446 7.128C77.0326 5.136 78.4006 3.6 80.2486 2.52C82.0966 1.44 84.4606 0.899999 87.3406 0.899999C90.2686 0.899999 92.6446 1.452 94.4686 2.556C96.3166 3.636 97.6606 5.172 98.5006 7.164C99.3646 9.132 99.7966 11.448 99.7966 14.112ZM82.1206 14.112C82.1206 16.44 82.5166 18.264 83.3086 19.584C84.1246 20.904 85.4566 21.564 87.3046 21.564C89.2246 21.564 90.5686 20.904 91.3366 19.584C92.1046 18.264 92.4886 16.44 92.4886 14.112C92.4886 11.784 92.1046 9.948 91.3366 8.604C90.5686 7.26 89.2366 6.588 87.3406 6.588C85.4446 6.588 84.1006 7.26 83.3086 8.604C82.5166 9.948 82.1206 11.784 82.1206 14.112ZM114.768 11.952H125.856V25.812C124.536 26.268 123.012 26.64 121.284 26.928C119.58 27.216 117.792 27.36 115.92 27.36C113.448 27.36 111.276 26.88 109.404 25.92C107.556 24.96 106.104 23.496 105.048 21.528C104.016 19.56 103.5 17.076 103.5 14.076C103.5 11.388 104.016 9.06 105.048 7.092C106.08 5.124 107.592 3.612 109.584 2.556C111.6 1.476 114.072 0.935999 117 0.935999C118.608 0.935999 120.132 1.092 121.572 1.404C123.012 1.692 124.26 2.076 125.316 2.556L123.12 7.992C122.208 7.536 121.248 7.2 120.24 6.984C119.232 6.744 118.164 6.624 117.036 6.624C115.5 6.624 114.264 6.972 113.328 7.668C112.392 8.364 111.708 9.288 111.276 10.44C110.868 11.592 110.664 12.864 110.664 14.256C110.664 16.656 111.168 18.492 112.176 19.764C113.184 21.012 114.624 21.636 116.496 21.636C116.904 21.636 117.396 21.612 117.972 21.564C118.572 21.492 119.028 21.42 119.34 21.348V17.316H114.768V11.952ZM155.133 14.112C155.133 16.776 154.701 19.104 153.837 21.096C152.997 23.064 151.653 24.6 149.805 25.704C147.981 26.808 145.593 27.36 142.641 27.36C139.761 27.36 137.397 26.808 135.549 25.704C133.701 24.6 132.333 23.052 131.445 21.06C130.581 19.068 130.149 16.74 130.149 14.076C130.149 11.412 130.593 9.096 131.481 7.128C132.369 5.136 133.737 3.6 135.585 2.52C137.433 1.44 139.797 0.899999 142.677 0.899999C145.605 0.899999 147.981 1.452 149.805 2.556C151.653 3.636 152.997 5.172 153.837 7.164C154.701 9.132 155.133 11.448 155.133 14.112ZM137.457 14.112C137.457 16.44 137.853 18.264 138.645 19.584C139.461 20.904 140.793 21.564 142.641 21.564C144.561 21.564 145.905 20.904 146.673 19.584C147.441 18.264 147.825 16.44 147.825 14.112C147.825 11.784 147.441 9.948 146.673 8.604C145.905 7.26 144.573 6.588 142.677 6.588C140.781 6.588 139.437 7.26 138.645 8.604C137.853 9.948 137.457 11.784 137.457 14.112Z" fill="#9E9494"/>
</svg>
