<?xml version="1.0" encoding="utf-8"?>
<!-- Generator: Adobe Illustrator 25.1.0, SVG Export Plug-In . SVG Version: 6.00 Build 0)  -->
<svg version="1.1" id="Слой_1" xmlns="http://www.w3.org/2000/svg" xmlns:xlink="http://www.w3.org/1999/xlink" x="0px" y="0px"
	 viewBox="0 0 27 27" style="enable-background:new 0 0 27 27;" xml:space="preserve">
<style type="text/css">
	.st0{fill:#7C7474;}
</style>
<g id="XMLID_1_">
	<g>
		<path class="st0" d="M21,17c0-2.1-0.8-4.5-2.3-7c-0.6,0.7-1.6,1.2-2.6,1.2c-1.8,0-3.2-1.2-3.2-2.8V4.6C12,5.4,11,6.4,10,7.7
			C8.2,10,6,13.6,6,17c0,3.5,3.4,6.4,7.5,6.4C17.6,23.4,21,20.6,21,17z M22.5,17c0,4.3-4,7.7-9,7.7s-9-3.5-9-7.7
			c0-1.7,0.4-3.5,1.3-5.4C6.5,10.1,7.5,8.5,8.7,7c2.1-2.7,4.1-4.4,4.2-4.5c0.2-0.2,0.6-0.2,0.8-0.1c0.3,0.1,0.5,0.3,0.5,0.6v5.5
			c0,0.8,0.8,1.5,1.7,1.5c0.9,0,1.7-0.7,1.7-1.5c0-0.3,0.2-0.6,0.6-0.6c0.3-0.1,0.7,0,0.9,0.3C21.4,11.3,22.5,14.3,22.5,17z"/>
	</g>
	<g>
	</g>
</g>
</svg>
