<svg width="27" height="27" viewBox="0 0 27 27" fill="none" xmlns="http://www.w3.org/2000/svg">
<path d="M4.06099 14.7699L8.51894 12.5794C8.63936 12.526 8.74635 12.4386 8.82181 12.3205C9.02763 11.9985 8.918 11.5808 8.58778 11.3885C7.32952 10.6559 6.55 9.35567 6.55 7.92969C6.55 5.69943 8.44614 3.87969 10.8 3.87969C12.2287 3.87969 13.5341 4.55559 14.3198 5.65909C14.5384 5.96616 14.971 6.04248 15.2877 5.83702C15.6083 5.62897 15.6957 5.20632 15.4739 4.89486C14.4279 3.42572 12.6916 2.52969 10.8 2.52969C7.68624 2.52969 5.15 4.94085 5.15 7.92969C5.15 9.44495 5.80858 10.8506 6.91583 11.8519L3.42524 13.567C2.46058 14.041 1.85 14.9925 1.85 16.0356V16.8547C1.85 18.3938 3.15505 19.6297 4.75008 19.6297C5.13002 19.6297 5.45008 19.334 5.45008 18.9547C5.45008 18.5754 5.13002 18.2797 4.75008 18.2797C3.91492 18.2797 3.25 17.6352 3.25 16.8547V16.0356C3.25 15.5056 3.56037 15.0158 4.06099 14.7699ZM8.52693 19.0107L12.9583 17.088C13.6459 17.3723 14.4039 17.5297 15.2 17.5297C15.9961 17.5297 16.7541 17.3723 17.4417 17.088L21.8731 19.0107C22.4101 19.2437 22.75 19.7521 22.75 20.3069V21.0547C22.75 21.8352 22.0851 22.4797 21.25 22.4797H9.15C8.31492 22.4797 7.65 21.8352 7.65 21.0547V20.3069C7.65 19.7521 7.98989 19.2437 8.52693 19.0107ZM9.55 12.1297C9.55 13.7717 10.3168 15.2409 11.5234 16.2302L7.95234 17.7796C6.9186 18.2281 6.25 19.2148 6.25 20.3069V21.0547C6.25 22.5938 7.55503 23.8297 9.15 23.8297H21.25C22.845 23.8297 24.15 22.5938 24.15 21.0547V20.3069C24.15 19.2148 23.4814 18.2281 22.4477 17.7796L18.8766 16.2302C20.0833 15.2409 20.85 13.7717 20.85 12.1297C20.85 9.14085 18.3138 6.72969 15.2 6.72969C12.0862 6.72969 9.55 9.14085 9.55 12.1297ZM19.45 12.1297C19.45 14.3599 17.5539 16.1797 15.2 16.1797C12.8461 16.1797 10.95 14.3599 10.95 12.1297C10.95 9.89943 12.8461 8.07969 15.2 8.07969C17.5539 8.07969 19.45 9.89943 19.45 12.1297Z" fill="#7C7474" stroke="#7C7474" stroke-width="0.3"/>
</svg>
