<svg width="27" height="27" viewBox="0 0 27 27" fill="none" xmlns="http://www.w3.org/2000/svg">
<mask id="path-1-outside-1" maskUnits="userSpaceOnUse" x="1" y="1.67969" width="24" height="23" fill="black">
<rect fill="white" x="1" y="1.67969" width="24" height="23"/>
<path d="M8.4556 12.4434L3.99484 14.6352C3.44535 14.9052 3.1 15.4457 3.1 16.0356V16.8547C3.1 17.7245 3.83874 18.4297 4.75008 18.4297C5.05383 18.4297 5.30008 18.6647 5.30008 18.9547C5.30008 19.2446 5.05383 19.4797 4.75008 19.4797C3.23123 19.4797 2 18.3044 2 16.8547V16.0356C2 15.0524 2.57559 14.1516 3.49139 13.7017L7.18491 11.8868C6.00605 10.9057 5.3 9.47561 5.3 7.92969C5.3 5.03019 7.76243 2.67969 10.8 2.67969C12.6443 2.67969 14.3345 3.55323 15.3517 4.98186C15.5225 5.22167 15.4573 5.5482 15.206 5.71118C14.9548 5.87416 14.6127 5.81189 14.442 5.57208C13.6274 4.42809 12.276 3.72969 10.8 3.72969C8.36995 3.72969 6.4 5.61009 6.4 7.92969C6.4 9.41199 7.21048 10.7601 8.5123 11.5182C8.77161 11.6692 8.8536 11.9922 8.69541 12.2398C8.6362 12.3324 8.55172 12.4014 8.4556 12.4434ZM12.9574 16.9249L8.46723 18.8731C7.87818 19.1287 7.5 19.6893 7.5 20.3069V21.0547C7.5 21.9245 8.23873 22.6297 9.15 22.6297H21.25C22.1613 22.6297 22.9 21.9245 22.9 21.0547V20.3069C22.9 19.6893 22.5218 19.1287 21.9328 18.8731L17.4426 16.9249C16.7577 17.2172 15.9987 17.3797 15.2 17.3797C14.4013 17.3797 13.6423 17.2172 12.9574 16.9249ZM11.8144 16.2674C10.5273 15.3065 9.7 13.8103 9.7 12.1297C9.7 9.23019 12.1624 6.87969 15.2 6.87969C18.2376 6.87969 20.7 9.23019 20.7 12.1297C20.7 13.8103 19.8727 15.3065 18.5856 16.2674L22.388 17.9172C23.3697 18.3432 24 19.2775 24 20.3069V21.0547C24 22.5044 22.7688 23.6797 21.25 23.6797H9.15C7.63122 23.6797 6.4 22.5044 6.4 21.0547V20.3069C6.4 19.2775 7.03031 18.3432 8.01204 17.9172L11.8144 16.2674ZM15.2 16.3297C17.6301 16.3297 19.6 14.4493 19.6 12.1297C19.6 9.81009 17.6301 7.92969 15.2 7.92969C12.7699 7.92969 10.8 9.81009 10.8 12.1297C10.8 14.4493 12.7699 16.3297 15.2 16.3297Z"/>
</mask>
<path d="M8.4556 12.4434L3.99484 14.6352C3.44535 14.9052 3.1 15.4457 3.1 16.0356V16.8547C3.1 17.7245 3.83874 18.4297 4.75008 18.4297C5.05383 18.4297 5.30008 18.6647 5.30008 18.9547C5.30008 19.2446 5.05383 19.4797 4.75008 19.4797C3.23123 19.4797 2 18.3044 2 16.8547V16.0356C2 15.0524 2.57559 14.1516 3.49139 13.7017L7.18491 11.8868C6.00605 10.9057 5.3 9.47561 5.3 7.92969C5.3 5.03019 7.76243 2.67969 10.8 2.67969C12.6443 2.67969 14.3345 3.55323 15.3517 4.98186C15.5225 5.22167 15.4573 5.5482 15.206 5.71118C14.9548 5.87416 14.6127 5.81189 14.442 5.57208C13.6274 4.42809 12.276 3.72969 10.8 3.72969C8.36995 3.72969 6.4 5.61009 6.4 7.92969C6.4 9.41199 7.21048 10.7601 8.5123 11.5182C8.77161 11.6692 8.8536 11.9922 8.69541 12.2398C8.6362 12.3324 8.55172 12.4014 8.4556 12.4434ZM12.9574 16.9249L8.46723 18.8731C7.87818 19.1287 7.5 19.6893 7.5 20.3069V21.0547C7.5 21.9245 8.23873 22.6297 9.15 22.6297H21.25C22.1613 22.6297 22.9 21.9245 22.9 21.0547V20.3069C22.9 19.6893 22.5218 19.1287 21.9328 18.8731L17.4426 16.9249C16.7577 17.2172 15.9987 17.3797 15.2 17.3797C14.4013 17.3797 13.6423 17.2172 12.9574 16.9249ZM11.8144 16.2674C10.5273 15.3065 9.7 13.8103 9.7 12.1297C9.7 9.23019 12.1624 6.87969 15.2 6.87969C18.2376 6.87969 20.7 9.23019 20.7 12.1297C20.7 13.8103 19.8727 15.3065 18.5856 16.2674L22.388 17.9172C23.3697 18.3432 24 19.2775 24 20.3069V21.0547C24 22.5044 22.7688 23.6797 21.25 23.6797H9.15C7.63122 23.6797 6.4 22.5044 6.4 21.0547V20.3069C6.4 19.2775 7.03031 18.3432 8.01204 17.9172L11.8144 16.2674ZM15.2 16.3297C17.6301 16.3297 19.6 14.4493 19.6 12.1297C19.6 9.81009 17.6301 7.92969 15.2 7.92969C12.7699 7.92969 10.8 9.81009 10.8 12.1297C10.8 14.4493 12.7699 16.3297 15.2 16.3297Z" fill="#7C7474"/>
<path d="M8.4556 12.4434L3.99484 14.6352C3.44535 14.9052 3.1 15.4457 3.1 16.0356V16.8547C3.1 17.7245 3.83874 18.4297 4.75008 18.4297C5.05383 18.4297 5.30008 18.6647 5.30008 18.9547C5.30008 19.2446 5.05383 19.4797 4.75008 19.4797C3.23123 19.4797 2 18.3044 2 16.8547V16.0356C2 15.0524 2.57559 14.1516 3.49139 13.7017L7.18491 11.8868C6.00605 10.9057 5.3 9.47561 5.3 7.92969C5.3 5.03019 7.76243 2.67969 10.8 2.67969C12.6443 2.67969 14.3345 3.55323 15.3517 4.98186C15.5225 5.22167 15.4573 5.5482 15.206 5.71118C14.9548 5.87416 14.6127 5.81189 14.442 5.57208C13.6274 4.42809 12.276 3.72969 10.8 3.72969C8.36995 3.72969 6.4 5.61009 6.4 7.92969C6.4 9.41199 7.21048 10.7601 8.5123 11.5182C8.77161 11.6692 8.8536 11.9922 8.69541 12.2398C8.6362 12.3324 8.55172 12.4014 8.4556 12.4434ZM12.9574 16.9249L8.46723 18.8731C7.87818 19.1287 7.5 19.6893 7.5 20.3069V21.0547C7.5 21.9245 8.23873 22.6297 9.15 22.6297H21.25C22.1613 22.6297 22.9 21.9245 22.9 21.0547V20.3069C22.9 19.6893 22.5218 19.1287 21.9328 18.8731L17.4426 16.9249C16.7577 17.2172 15.9987 17.3797 15.2 17.3797C14.4013 17.3797 13.6423 17.2172 12.9574 16.9249ZM11.8144 16.2674C10.5273 15.3065 9.7 13.8103 9.7 12.1297C9.7 9.23019 12.1624 6.87969 15.2 6.87969C18.2376 6.87969 20.7 9.23019 20.7 12.1297C20.7 13.8103 19.8727 15.3065 18.5856 16.2674L22.388 17.9172C23.3697 18.3432 24 19.2775 24 20.3069V21.0547C24 22.5044 22.7688 23.6797 21.25 23.6797H9.15C7.63122 23.6797 6.4 22.5044 6.4 21.0547V20.3069C6.4 19.2775 7.03031 18.3432 8.01204 17.9172L11.8144 16.2674ZM15.2 16.3297C17.6301 16.3297 19.6 14.4493 19.6 12.1297C19.6 9.81009 17.6301 7.92969 15.2 7.92969C12.7699 7.92969 10.8 9.81009 10.8 12.1297C10.8 14.4493 12.7699 16.3297 15.2 16.3297Z" stroke="#7C7474" stroke-width="0.6" mask="url(#path-1-outside-1)"/>
</svg>
