<svg width="27" height="27" viewBox="0 0 27 27" fill="none" xmlns="http://www.w3.org/2000/svg">
<mask id="path-1-outside-1" maskUnits="userSpaceOnUse" x="3.5" y="3.5" width="21" height="23" fill="black">
<rect fill="white" x="3.5" y="3.5" width="21" height="23"/>
<path d="M21.7045 21.375L19.2898 18.9602C19.0701 18.7406 19.0701 18.3844 19.2898 18.1648C19.5094 17.9451 19.8656 17.9451 20.0852 18.1648L23.4602 21.5398C23.6799 21.7594 23.6799 22.1156 23.4602 22.3352L20.0852 25.7102C19.8656 25.9299 19.5094 25.9299 19.2898 25.7102C19.0701 25.4906 19.0701 25.1344 19.2898 24.9148L21.7045 22.5H16.3125C16.0018 22.5 15.75 22.2482 15.75 21.9375C15.75 21.6268 16.0018 21.375 16.3125 21.375H21.7045ZM15.7978 15.2608C15.0963 15.5752 14.3185 15.75 13.5 15.75C12.6831 15.75 11.9069 15.5759 11.2064 15.2627L6.61421 17.3501C6.01178 17.6239 5.625 18.2246 5.625 18.8863V19.6875C5.625 20.6195 6.38052 21.375 7.3125 21.375H12.9375C13.2482 21.375 13.5 21.6268 13.5 21.9375C13.5 22.2482 13.2482 22.5 12.9375 22.5H7.3125C5.7592 22.5 4.5 21.2408 4.5 19.6875V18.8863C4.5 17.7834 5.14463 16.7823 6.14868 16.3259L10.0374 14.5583C8.7211 13.5287 7.875 11.9257 7.875 10.125C7.875 7.0184 10.3934 4.5 13.5 4.5C16.6066 4.5 19.125 7.0184 19.125 10.125C19.125 11.917 18.287 13.5133 16.9815 14.5434L19.9087 15.7953C20.1943 15.9175 20.3268 16.2481 20.2047 16.5337C20.0825 16.8193 19.7519 16.9518 19.4663 16.8297L15.7978 15.2608ZM13.5 14.625C15.9853 14.625 18 12.6103 18 10.125C18 7.63972 15.9853 5.625 13.5 5.625C11.0147 5.625 9 7.63972 9 10.125C9 12.6103 11.0147 14.625 13.5 14.625Z"/>
</mask>
<path d="M21.7045 21.375L19.2898 18.9602C19.0701 18.7406 19.0701 18.3844 19.2898 18.1648C19.5094 17.9451 19.8656 17.9451 20.0852 18.1648L23.4602 21.5398C23.6799 21.7594 23.6799 22.1156 23.4602 22.3352L20.0852 25.7102C19.8656 25.9299 19.5094 25.9299 19.2898 25.7102C19.0701 25.4906 19.0701 25.1344 19.2898 24.9148L21.7045 22.5H16.3125C16.0018 22.5 15.75 22.2482 15.75 21.9375C15.75 21.6268 16.0018 21.375 16.3125 21.375H21.7045ZM15.7978 15.2608C15.0963 15.5752 14.3185 15.75 13.5 15.75C12.6831 15.75 11.9069 15.5759 11.2064 15.2627L6.61421 17.3501C6.01178 17.6239 5.625 18.2246 5.625 18.8863V19.6875C5.625 20.6195 6.38052 21.375 7.3125 21.375H12.9375C13.2482 21.375 13.5 21.6268 13.5 21.9375C13.5 22.2482 13.2482 22.5 12.9375 22.5H7.3125C5.7592 22.5 4.5 21.2408 4.5 19.6875V18.8863C4.5 17.7834 5.14463 16.7823 6.14868 16.3259L10.0374 14.5583C8.7211 13.5287 7.875 11.9257 7.875 10.125C7.875 7.0184 10.3934 4.5 13.5 4.5C16.6066 4.5 19.125 7.0184 19.125 10.125C19.125 11.917 18.287 13.5133 16.9815 14.5434L19.9087 15.7953C20.1943 15.9175 20.3268 16.2481 20.2047 16.5337C20.0825 16.8193 19.7519 16.9518 19.4663 16.8297L15.7978 15.2608ZM13.5 14.625C15.9853 14.625 18 12.6103 18 10.125C18 7.63972 15.9853 5.625 13.5 5.625C11.0147 5.625 9 7.63972 9 10.125C9 12.6103 11.0147 14.625 13.5 14.625Z" fill="#7C7474"/>
<path d="M21.7045 21.375L19.2898 18.9602C19.0701 18.7406 19.0701 18.3844 19.2898 18.1648C19.5094 17.9451 19.8656 17.9451 20.0852 18.1648L23.4602 21.5398C23.6799 21.7594 23.6799 22.1156 23.4602 22.3352L20.0852 25.7102C19.8656 25.9299 19.5094 25.9299 19.2898 25.7102C19.0701 25.4906 19.0701 25.1344 19.2898 24.9148L21.7045 22.5H16.3125C16.0018 22.5 15.75 22.2482 15.75 21.9375C15.75 21.6268 16.0018 21.375 16.3125 21.375H21.7045ZM15.7978 15.2608C15.0963 15.5752 14.3185 15.75 13.5 15.75C12.6831 15.75 11.9069 15.5759 11.2064 15.2627L6.61421 17.3501C6.01178 17.6239 5.625 18.2246 5.625 18.8863V19.6875C5.625 20.6195 6.38052 21.375 7.3125 21.375H12.9375C13.2482 21.375 13.5 21.6268 13.5 21.9375C13.5 22.2482 13.2482 22.5 12.9375 22.5H7.3125C5.7592 22.5 4.5 21.2408 4.5 19.6875V18.8863C4.5 17.7834 5.14463 16.7823 6.14868 16.3259L10.0374 14.5583C8.7211 13.5287 7.875 11.9257 7.875 10.125C7.875 7.0184 10.3934 4.5 13.5 4.5C16.6066 4.5 19.125 7.0184 19.125 10.125C19.125 11.917 18.287 13.5133 16.9815 14.5434L19.9087 15.7953C20.1943 15.9175 20.3268 16.2481 20.2047 16.5337C20.0825 16.8193 19.7519 16.9518 19.4663 16.8297L15.7978 15.2608ZM13.5 14.625C15.9853 14.625 18 12.6103 18 10.125C18 7.63972 15.9853 5.625 13.5 5.625C11.0147 5.625 9 7.63972 9 10.125C9 12.6103 11.0147 14.625 13.5 14.625Z" stroke="#7C7474" stroke-width="0.6" mask="url(#path-1-outside-1)"/>
</svg>
