<svg width="24" height="24" viewBox="0 0 24 24" fill="none" xmlns="http://www.w3.org/2000/svg">
<mask id="path-1-outside-1" maskUnits="userSpaceOnUse" x="3.65918" y="8" width="16" height="16" fill="black">
<rect fill="white" x="3.65918" y="8" width="16" height="16"/>
<path d="M16.9093 9C15.9442 9 15.1593 9.78488 15.1593 10.75V13.8125C15.1593 14.7777 15.9442 15.5626 16.9093 15.5626C17.2278 15.5626 17.527 15.4768 17.7843 15.3272V17.0028C17.7843 19.8273 15.4874 22.1251 12.662 22.1251H10.7274C9.97313 22.1251 9.21884 21.9466 8.54421 21.6088C7.17834 20.9254 6.20007 19.6208 5.92707 18.1175L5.5587 16.0989C5.54295 16.007 5.53421 15.9134 5.53421 15.8198C5.53421 15.0987 6.02423 14.4792 6.72598 14.3148L12.2315 13.0198C12.298 13.382 12.2534 13.7556 12.0985 14.1004C11.8937 14.5607 11.5192 14.9089 11.0459 15.0813L9.16023 15.7673C8.86184 15.8758 8.62387 16.1068 8.50574 16.4017C8.38848 16.6966 8.40336 17.0273 8.54512 17.3108L9.08062 18.3827C9.18911 18.5997 9.45075 18.6854 9.66776 18.5787C9.88388 18.4702 9.97141 18.2077 9.86378 17.9916L9.32828 16.9188C9.28627 16.8366 9.30465 16.7622 9.31954 16.7254C9.33353 16.6878 9.37118 16.6213 9.45953 16.5889L11.3452 15.9029C12.0425 15.6491 12.5938 15.1364 12.8974 14.4583C13.201 13.7802 13.2159 13.0268 12.9403 12.3373C12.8598 12.136 12.6454 12.0267 12.4345 12.0739L6.52643 13.4643C5.42655 13.7224 4.65918 14.691 4.65918 15.8207C4.65918 15.9651 4.67317 16.1095 4.69769 16.2547L5.06606 18.276C5.38807 20.0479 6.54218 21.5879 8.15308 22.3929C8.94761 22.7901 9.83749 23.0001 10.7265 23.0001H12.6612C15.9687 23.0001 18.6593 20.3095 18.6593 17.0028V10.75C18.6593 9.78488 17.8744 9 16.9093 9ZM17.7843 13.8125C17.7843 14.2947 17.3923 14.6875 16.9093 14.6875C16.4263 14.6875 16.0343 14.2946 16.0343 13.8125V10.75C16.0343 10.2678 16.4263 9.87499 16.9093 9.87499C17.3923 9.87499 17.7843 10.2679 17.7843 10.75V13.8125Z"/>
</mask>
<path d="M16.9093 9C15.9442 9 15.1593 9.78488 15.1593 10.75V13.8125C15.1593 14.7777 15.9442 15.5626 16.9093 15.5626C17.2278 15.5626 17.527 15.4768 17.7843 15.3272V17.0028C17.7843 19.8273 15.4874 22.1251 12.662 22.1251H10.7274C9.97313 22.1251 9.21884 21.9466 8.54421 21.6088C7.17834 20.9254 6.20007 19.6208 5.92707 18.1175L5.5587 16.0989C5.54295 16.007 5.53421 15.9134 5.53421 15.8198C5.53421 15.0987 6.02423 14.4792 6.72598 14.3148L12.2315 13.0198C12.298 13.382 12.2534 13.7556 12.0985 14.1004C11.8937 14.5607 11.5192 14.9089 11.0459 15.0813L9.16023 15.7673C8.86184 15.8758 8.62387 16.1068 8.50574 16.4017C8.38848 16.6966 8.40336 17.0273 8.54512 17.3108L9.08062 18.3827C9.18911 18.5997 9.45075 18.6854 9.66776 18.5787C9.88388 18.4702 9.97141 18.2077 9.86378 17.9916L9.32828 16.9188C9.28627 16.8366 9.30465 16.7622 9.31954 16.7254C9.33353 16.6878 9.37118 16.6213 9.45953 16.5889L11.3452 15.9029C12.0425 15.6491 12.5938 15.1364 12.8974 14.4583C13.201 13.7802 13.2159 13.0268 12.9403 12.3373C12.8598 12.136 12.6454 12.0267 12.4345 12.0739L6.52643 13.4643C5.42655 13.7224 4.65918 14.691 4.65918 15.8207C4.65918 15.9651 4.67317 16.1095 4.69769 16.2547L5.06606 18.276C5.38807 20.0479 6.54218 21.5879 8.15308 22.3929C8.94761 22.7901 9.83749 23.0001 10.7265 23.0001H12.6612C15.9687 23.0001 18.6593 20.3095 18.6593 17.0028V10.75C18.6593 9.78488 17.8744 9 16.9093 9ZM17.7843 13.8125C17.7843 14.2947 17.3923 14.6875 16.9093 14.6875C16.4263 14.6875 16.0343 14.2946 16.0343 13.8125V10.75C16.0343 10.2678 16.4263 9.87499 16.9093 9.87499C17.3923 9.87499 17.7843 10.2679 17.7843 10.75V13.8125Z" fill="#7C7474"/>
<path d="M16.9093 9C15.9442 9 15.1593 9.78488 15.1593 10.75V13.8125C15.1593 14.7777 15.9442 15.5626 16.9093 15.5626C17.2278 15.5626 17.527 15.4768 17.7843 15.3272V17.0028C17.7843 19.8273 15.4874 22.1251 12.662 22.1251H10.7274C9.97313 22.1251 9.21884 21.9466 8.54421 21.6088C7.17834 20.9254 6.20007 19.6208 5.92707 18.1175L5.5587 16.0989C5.54295 16.007 5.53421 15.9134 5.53421 15.8198C5.53421 15.0987 6.02423 14.4792 6.72598 14.3148L12.2315 13.0198C12.298 13.382 12.2534 13.7556 12.0985 14.1004C11.8937 14.5607 11.5192 14.9089 11.0459 15.0813L9.16023 15.7673C8.86184 15.8758 8.62387 16.1068 8.50574 16.4017C8.38848 16.6966 8.40336 17.0273 8.54512 17.3108L9.08062 18.3827C9.18911 18.5997 9.45075 18.6854 9.66776 18.5787C9.88388 18.4702 9.97141 18.2077 9.86378 17.9916L9.32828 16.9188C9.28627 16.8366 9.30465 16.7622 9.31954 16.7254C9.33353 16.6878 9.37118 16.6213 9.45953 16.5889L11.3452 15.9029C12.0425 15.6491 12.5938 15.1364 12.8974 14.4583C13.201 13.7802 13.2159 13.0268 12.9403 12.3373C12.8598 12.136 12.6454 12.0267 12.4345 12.0739L6.52643 13.4643C5.42655 13.7224 4.65918 14.691 4.65918 15.8207C4.65918 15.9651 4.67317 16.1095 4.69769 16.2547L5.06606 18.276C5.38807 20.0479 6.54218 21.5879 8.15308 22.3929C8.94761 22.7901 9.83749 23.0001 10.7265 23.0001H12.6612C15.9687 23.0001 18.6593 20.3095 18.6593 17.0028V10.75C18.6593 9.78488 17.8744 9 16.9093 9ZM17.7843 13.8125C17.7843 14.2947 17.3923 14.6875 16.9093 14.6875C16.4263 14.6875 16.0343 14.2946 16.0343 13.8125V10.75C16.0343 10.2678 16.4263 9.87499 16.9093 9.87499C17.3923 9.87499 17.7843 10.2679 17.7843 10.75V13.8125Z" stroke="#7C7474" stroke-width="0.6" mask="url(#path-1-outside-1)"/>
<mask id="path-2-outside-2" maskUnits="userSpaceOnUse" x="11.5342" y="6.25" width="5" height="10" fill="black">
<rect fill="white" x="11.5342" y="6.25" width="5" height="10"/>
<path d="M16.0342 10.7501V9.00003C16.0342 8.03488 15.2494 7.25 14.2842 7.25C13.3191 7.25 12.5342 8.03488 12.5342 9.00003V13.3751C12.5342 14.3402 13.3191 15.1251 14.2842 15.1251C15.2485 15.1251 16.0342 14.3402 16.0342 13.3751V11.6251C16.0342 11.3836 15.8382 11.1875 15.5967 11.1875C15.3552 11.1875 15.1592 11.3836 15.1592 11.6251V13.3751C15.1592 13.8572 14.7672 14.2501 14.2842 14.2501C13.8012 14.2501 13.4092 13.8572 13.4092 13.3751V9.00007C13.4092 8.51793 13.8012 8.12508 14.2842 8.12508C14.7672 8.12508 15.1592 8.51797 15.1592 9.00007V10.7501C15.1592 10.9916 15.3552 11.1876 15.5967 11.1876C15.8382 11.1876 16.0342 10.9916 16.0342 10.7501Z"/>
</mask>
<path d="M16.0342 10.7501V9.00003C16.0342 8.03488 15.2494 7.25 14.2842 7.25C13.3191 7.25 12.5342 8.03488 12.5342 9.00003V13.3751C12.5342 14.3402 13.3191 15.1251 14.2842 15.1251C15.2485 15.1251 16.0342 14.3402 16.0342 13.3751V11.6251C16.0342 11.3836 15.8382 11.1875 15.5967 11.1875C15.3552 11.1875 15.1592 11.3836 15.1592 11.6251V13.3751C15.1592 13.8572 14.7672 14.2501 14.2842 14.2501C13.8012 14.2501 13.4092 13.8572 13.4092 13.3751V9.00007C13.4092 8.51793 13.8012 8.12508 14.2842 8.12508C14.7672 8.12508 15.1592 8.51797 15.1592 9.00007V10.7501C15.1592 10.9916 15.3552 11.1876 15.5967 11.1876C15.8382 11.1876 16.0342 10.9916 16.0342 10.7501Z" fill="#7C7474"/>
<path d="M16.0342 10.7501V9.00003C16.0342 8.03488 15.2494 7.25 14.2842 7.25C13.3191 7.25 12.5342 8.03488 12.5342 9.00003V13.3751C12.5342 14.3402 13.3191 15.1251 14.2842 15.1251C15.2485 15.1251 16.0342 14.3402 16.0342 13.3751V11.6251C16.0342 11.3836 15.8382 11.1875 15.5967 11.1875C15.3552 11.1875 15.1592 11.3836 15.1592 11.6251V13.3751C15.1592 13.8572 14.7672 14.2501 14.2842 14.2501C13.8012 14.2501 13.4092 13.8572 13.4092 13.3751V9.00007C13.4092 8.51793 13.8012 8.12508 14.2842 8.12508C14.7672 8.12508 15.1592 8.51797 15.1592 9.00007V10.7501C15.1592 10.9916 15.3552 11.1876 15.5967 11.1876C15.8382 11.1876 16.0342 10.9916 16.0342 10.7501Z" stroke="#7C7474" stroke-width="0.6" mask="url(#path-2-outside-2)"/>
<mask id="path-3-outside-3" maskUnits="userSpaceOnUse" x="3.03613" y="1" width="11" height="14" fill="black">
<rect fill="white" x="3.03613" y="1" width="11" height="14"/>
<path d="M11.5932 2C10.656 2 9.87988 2.70264 9.78452 3.66164L9.54126 10.1647L7.41241 5.39153C7.21028 4.92866 6.81739 4.57338 6.33529 4.41941C5.85315 4.2663 5.32642 4.32667 4.89329 4.58741C4.19065 5.00828 3.87216 5.84742 4.11891 6.62882L6.42893 13.9439C6.48844 14.1311 6.65993 14.2502 6.84631 14.2502C6.89007 14.2502 6.9347 14.2441 6.97842 14.23C7.20856 14.1574 7.33628 13.9115 7.26368 13.6814L4.95281 6.36545C4.82857 5.97256 4.98956 5.54993 5.34217 5.33731C5.56091 5.20606 5.82694 5.17542 6.06844 5.25331C6.3117 5.3312 6.50944 5.50879 6.61182 5.74505L9.06707 11.2497C9.19832 11.5446 9.50894 11.7038 9.82919 11.6452C10.1468 11.5831 10.3743 11.3145 10.3866 10.9934L10.6578 3.72119C10.7059 3.23905 11.1075 2.87508 11.5932 2.87508C12.1121 2.87508 12.5338 3.29684 12.5338 3.8157V9.00012C12.5338 9.24162 12.7298 9.43763 12.9713 9.43763C13.2128 9.43763 13.4088 9.24162 13.4088 9.00012V3.8157C13.4088 2.81462 12.5951 2 11.5932 2Z"/>
</mask>
<path d="M11.5932 2C10.656 2 9.87988 2.70264 9.78452 3.66164L9.54126 10.1647L7.41241 5.39153C7.21028 4.92866 6.81739 4.57338 6.33529 4.41941C5.85315 4.2663 5.32642 4.32667 4.89329 4.58741C4.19065 5.00828 3.87216 5.84742 4.11891 6.62882L6.42893 13.9439C6.48844 14.1311 6.65993 14.2502 6.84631 14.2502C6.89007 14.2502 6.9347 14.2441 6.97842 14.23C7.20856 14.1574 7.33628 13.9115 7.26368 13.6814L4.95281 6.36545C4.82857 5.97256 4.98956 5.54993 5.34217 5.33731C5.56091 5.20606 5.82694 5.17542 6.06844 5.25331C6.3117 5.3312 6.50944 5.50879 6.61182 5.74505L9.06707 11.2497C9.19832 11.5446 9.50894 11.7038 9.82919 11.6452C10.1468 11.5831 10.3743 11.3145 10.3866 10.9934L10.6578 3.72119C10.7059 3.23905 11.1075 2.87508 11.5932 2.87508C12.1121 2.87508 12.5338 3.29684 12.5338 3.8157V9.00012C12.5338 9.24162 12.7298 9.43763 12.9713 9.43763C13.2128 9.43763 13.4088 9.24162 13.4088 9.00012V3.8157C13.4088 2.81462 12.5951 2 11.5932 2Z" fill="#7C7474"/>
<path d="M11.5932 2C10.656 2 9.87988 2.70264 9.78452 3.66164L9.54126 10.1647L7.41241 5.39153C7.21028 4.92866 6.81739 4.57338 6.33529 4.41941C5.85315 4.2663 5.32642 4.32667 4.89329 4.58741C4.19065 5.00828 3.87216 5.84742 4.11891 6.62882L6.42893 13.9439C6.48844 14.1311 6.65993 14.2502 6.84631 14.2502C6.89007 14.2502 6.9347 14.2441 6.97842 14.23C7.20856 14.1574 7.33628 13.9115 7.26368 13.6814L4.95281 6.36545C4.82857 5.97256 4.98956 5.54993 5.34217 5.33731C5.56091 5.20606 5.82694 5.17542 6.06844 5.25331C6.3117 5.3312 6.50944 5.50879 6.61182 5.74505L9.06707 11.2497C9.19832 11.5446 9.50894 11.7038 9.82919 11.6452C10.1468 11.5831 10.3743 11.3145 10.3866 10.9934L10.6578 3.72119C10.7059 3.23905 11.1075 2.87508 11.5932 2.87508C12.1121 2.87508 12.5338 3.29684 12.5338 3.8157V9.00012C12.5338 9.24162 12.7298 9.43763 12.9713 9.43763C13.2128 9.43763 13.4088 9.24162 13.4088 9.00012V3.8157C13.4088 2.81462 12.5951 2 11.5932 2Z" stroke="#7C7474" stroke-width="0.6" mask="url(#path-3-outside-3)"/>
</svg>
