<svg width="27" height="27" viewBox="0 0 27 27" fill="none" xmlns="http://www.w3.org/2000/svg">
<mask id="path-1-outside-1" maskUnits="userSpaceOnUse" x="1.25" y="1.25" width="24" height="24" fill="black">
<rect fill="white" x="1.25" y="1.25" width="24" height="24"/>
<path d="M8.861 22.4935C8.98668 22.4725 9.11575 22.4905 9.23093 22.545C10.554 23.1707 12.0033 23.4996 13.5006 23.4996C19.0231 23.4996 23.5001 19.0225 23.5001 13.4998C23.5001 7.97705 19.0231 3.49998 13.5006 3.49998C7.97801 3.49998 3.50109 7.97705 3.50109 13.4998C3.50109 15.6334 4.17016 17.6645 5.39418 19.3559C5.52612 19.5382 5.54986 19.7774 5.45632 19.9821L3.93333 23.3148L8.861 22.4935ZM2.97887 24.7411C2.48488 24.8234 2.09954 24.3203 2.3077 23.8648L4.17097 19.7875C2.92791 17.9467 2.25116 15.7735 2.25116 13.4998C2.25116 7.2867 7.28769 2.25 13.5006 2.25C19.7135 2.25 24.75 7.2867 24.75 13.4998C24.75 19.7129 19.7135 24.7496 13.5006 24.7496C11.8851 24.7496 10.3168 24.4084 8.87648 23.7581L2.97887 24.7411Z"/>
</mask>
<path d="M8.861 22.4935C8.98668 22.4725 9.11575 22.4905 9.23093 22.545C10.554 23.1707 12.0033 23.4996 13.5006 23.4996C19.0231 23.4996 23.5001 19.0225 23.5001 13.4998C23.5001 7.97705 19.0231 3.49998 13.5006 3.49998C7.97801 3.49998 3.50109 7.97705 3.50109 13.4998C3.50109 15.6334 4.17016 17.6645 5.39418 19.3559C5.52612 19.5382 5.54986 19.7774 5.45632 19.9821L3.93333 23.3148L8.861 22.4935ZM2.97887 24.7411C2.48488 24.8234 2.09954 24.3203 2.3077 23.8648L4.17097 19.7875C2.92791 17.9467 2.25116 15.7735 2.25116 13.4998C2.25116 7.2867 7.28769 2.25 13.5006 2.25C19.7135 2.25 24.75 7.2867 24.75 13.4998C24.75 19.7129 19.7135 24.7496 13.5006 24.7496C11.8851 24.7496 10.3168 24.4084 8.87648 23.7581L2.97887 24.7411Z" fill="#7C7474"/>
<path d="M8.861 22.4935C8.98668 22.4725 9.11575 22.4905 9.23093 22.545C10.554 23.1707 12.0033 23.4996 13.5006 23.4996C19.0231 23.4996 23.5001 19.0225 23.5001 13.4998C23.5001 7.97705 19.0231 3.49998 13.5006 3.49998C7.97801 3.49998 3.50109 7.97705 3.50109 13.4998C3.50109 15.6334 4.17016 17.6645 5.39418 19.3559C5.52612 19.5382 5.54986 19.7774 5.45632 19.9821L3.93333 23.3148L8.861 22.4935ZM2.97887 24.7411C2.48488 24.8234 2.09954 24.3203 2.3077 23.8648L4.17097 19.7875C2.92791 17.9467 2.25116 15.7735 2.25116 13.4998C2.25116 7.2867 7.28769 2.25 13.5006 2.25C19.7135 2.25 24.75 7.2867 24.75 13.4998C24.75 19.7129 19.7135 24.7496 13.5006 24.7496C11.8851 24.7496 10.3168 24.4084 8.87648 23.7581L2.97887 24.7411Z" stroke="#7C7474" stroke-width="0.6" mask="url(#path-1-outside-1)"/>
</svg>
