<svg width="27" height="27" viewBox="0 0 27 27" fill="none" xmlns="http://www.w3.org/2000/svg">
<mask id="path-1-outside-1" maskUnits="userSpaceOnUse" x="2" y="1" width="24" height="24" fill="black">
<rect fill="white" x="2" y="1" width="24" height="24"/>
<path d="M4.39328 12.3125V21.9375C4.39328 22.3172 4.70518 22.625 5.08993 22.625H7.8765C8.26124 22.625 8.57314 22.3172 8.57314 21.9375V12.3125C8.57314 11.9328 8.26124 11.625 7.8765 11.625H5.08993C4.70518 11.625 4.39328 11.9328 4.39328 12.3125ZM9.26979 10.7752L10.4986 8.3498C11.0649 7.2321 11.3597 5.99963 11.3597 4.75V4.40625C11.3597 3.07731 12.4513 2 13.798 2C15.1445 2 16.2721 3.00699 16.406 4.32931L16.8667 8.875H21.5168C23.4405 8.875 25 10.414 25 12.3125C25 12.4267 24.9942 12.5409 24.9827 12.6545L24.1467 20.9045C23.9687 22.6618 22.4703 24 20.6808 24H12.0564C11.1193 24 10.2686 23.6348 9.64257 23.0408C9.27199 23.6173 8.61952 24 7.8765 24H5.08993C3.93569 24 3 23.0766 3 21.9375V12.3125C3 11.1734 3.93569 10.25 5.08993 10.25H7.8765C8.41177 10.25 8.90004 10.4486 9.26979 10.7752ZM9.96642 12.4748V20.5625C9.96642 21.7016 10.9021 22.625 12.0564 22.625H20.6808C21.7545 22.625 22.6535 21.8221 22.7604 20.7677L23.5963 12.5177C23.6033 12.4495 23.6067 12.381 23.6067 12.3125C23.6067 11.1734 22.671 10.25 21.5168 10.25H16.2362C15.8783 10.25 15.5786 9.98236 15.543 9.63091L15.0197 4.46613C14.9569 3.84671 14.4287 3.375 13.798 3.375C13.2208 3.375 12.753 3.83671 12.753 4.40625V4.75C12.753 6.21309 12.4078 7.65609 11.7448 8.96472L9.96642 12.4748Z"/>
</mask>
<path d="M4.39328 12.3125V21.9375C4.39328 22.3172 4.70518 22.625 5.08993 22.625H7.8765C8.26124 22.625 8.57314 22.3172 8.57314 21.9375V12.3125C8.57314 11.9328 8.26124 11.625 7.8765 11.625H5.08993C4.70518 11.625 4.39328 11.9328 4.39328 12.3125ZM9.26979 10.7752L10.4986 8.3498C11.0649 7.2321 11.3597 5.99963 11.3597 4.75V4.40625C11.3597 3.07731 12.4513 2 13.798 2C15.1445 2 16.2721 3.00699 16.406 4.32931L16.8667 8.875H21.5168C23.4405 8.875 25 10.414 25 12.3125C25 12.4267 24.9942 12.5409 24.9827 12.6545L24.1467 20.9045C23.9687 22.6618 22.4703 24 20.6808 24H12.0564C11.1193 24 10.2686 23.6348 9.64257 23.0408C9.27199 23.6173 8.61952 24 7.8765 24H5.08993C3.93569 24 3 23.0766 3 21.9375V12.3125C3 11.1734 3.93569 10.25 5.08993 10.25H7.8765C8.41177 10.25 8.90004 10.4486 9.26979 10.7752ZM9.96642 12.4748V20.5625C9.96642 21.7016 10.9021 22.625 12.0564 22.625H20.6808C21.7545 22.625 22.6535 21.8221 22.7604 20.7677L23.5963 12.5177C23.6033 12.4495 23.6067 12.381 23.6067 12.3125C23.6067 11.1734 22.671 10.25 21.5168 10.25H16.2362C15.8783 10.25 15.5786 9.98236 15.543 9.63091L15.0197 4.46613C14.9569 3.84671 14.4287 3.375 13.798 3.375C13.2208 3.375 12.753 3.83671 12.753 4.40625V4.75C12.753 6.21309 12.4078 7.65609 11.7448 8.96472L9.96642 12.4748Z" fill="#7C7474"/>
<path d="M4.39328 12.3125V21.9375C4.39328 22.3172 4.70518 22.625 5.08993 22.625H7.8765C8.26124 22.625 8.57314 22.3172 8.57314 21.9375V12.3125C8.57314 11.9328 8.26124 11.625 7.8765 11.625H5.08993C4.70518 11.625 4.39328 11.9328 4.39328 12.3125ZM9.26979 10.7752L10.4986 8.3498C11.0649 7.2321 11.3597 5.99963 11.3597 4.75V4.40625C11.3597 3.07731 12.4513 2 13.798 2C15.1445 2 16.2721 3.00699 16.406 4.32931L16.8667 8.875H21.5168C23.4405 8.875 25 10.414 25 12.3125C25 12.4267 24.9942 12.5409 24.9827 12.6545L24.1467 20.9045C23.9687 22.6618 22.4703 24 20.6808 24H12.0564C11.1193 24 10.2686 23.6348 9.64257 23.0408C9.27199 23.6173 8.61952 24 7.8765 24H5.08993C3.93569 24 3 23.0766 3 21.9375V12.3125C3 11.1734 3.93569 10.25 5.08993 10.25H7.8765C8.41177 10.25 8.90004 10.4486 9.26979 10.7752ZM9.96642 12.4748V20.5625C9.96642 21.7016 10.9021 22.625 12.0564 22.625H20.6808C21.7545 22.625 22.6535 21.8221 22.7604 20.7677L23.5963 12.5177C23.6033 12.4495 23.6067 12.381 23.6067 12.3125C23.6067 11.1734 22.671 10.25 21.5168 10.25H16.2362C15.8783 10.25 15.5786 9.98236 15.543 9.63091L15.0197 4.46613C14.9569 3.84671 14.4287 3.375 13.798 3.375C13.2208 3.375 12.753 3.83671 12.753 4.40625V4.75C12.753 6.21309 12.4078 7.65609 11.7448 8.96472L9.96642 12.4748Z" stroke="#7C7474" stroke-width="0.4" mask="url(#path-1-outside-1)"/>
</svg>
