<svg width="27" height="27" viewBox="0 0 27 27" fill="none" xmlns="http://www.w3.org/2000/svg">
<path d="M4.49328 21.9375V12.3125C4.49328 11.9893 4.75916 11.725 5.08993 11.725H7.8765C8.20726 11.725 8.47314 11.9893 8.47314 12.3125V21.9375C8.47314 22.2607 8.20726 22.525 7.8765 22.525H5.08993C4.75916 22.525 4.49328 22.2607 4.49328 21.9375ZM10.4094 8.3046L9.23729 10.6181C8.86354 10.325 8.39054 10.15 7.8765 10.15H5.08993C3.88171 10.15 2.9 11.1169 2.9 12.3125V21.9375C2.9 23.1331 3.88171 24.1 5.08993 24.1H7.8765C8.61183 24.1 9.26287 23.742 9.66004 23.1926C10.2949 23.7567 11.1352 24.1 12.0564 24.1H20.6808C22.5206 24.1 24.0629 22.724 24.2462 20.9146L25.0822 12.6646C25.0941 12.5476 25.1 12.4301 25.1 12.3125C25.1 10.3576 23.4945 8.775 21.5168 8.775H16.957L16.5055 4.31923C16.3663 2.94479 15.1948 1.9 13.798 1.9C12.3974 1.9 11.2597 3.02085 11.2597 4.40625V4.75C11.2597 5.98388 10.9686 7.20087 10.4094 8.3046ZM10.0664 20.5625V12.4987L11.834 9.00991C12.5041 7.68731 12.853 6.22884 12.853 4.75V4.40625C12.853 3.89318 13.2748 3.475 13.798 3.475C14.3785 3.475 14.8627 3.90891 14.9202 4.47621L15.4435 9.64099C15.4844 10.0446 15.828 10.35 16.2362 10.35H21.5168C22.617 10.35 23.5067 11.2299 23.5067 12.3125C23.5067 12.3777 23.5034 12.4428 23.4969 12.5076L22.6609 20.7576C22.5593 21.7599 21.7043 22.525 20.6808 22.525H12.0564C10.9561 22.525 10.0664 21.6451 10.0664 20.5625Z" fill="#7C7474" stroke="#7C7474" stroke-width="0.2"/>
</svg>
