<svg width="27" height="27" viewBox="0 0 27 27" fill="none" xmlns="http://www.w3.org/2000/svg">
<path d="M19.1837 19.0663L21.3424 21.225H16.3125C15.919 21.225 15.6 21.544 15.6 21.9375C15.6 22.331 15.919 22.65 16.3125 22.65H21.3424L19.1837 24.8087C18.9054 25.0869 18.9054 25.5381 19.1837 25.8163C19.4619 26.0946 19.9131 26.0946 20.1913 25.8163L23.5663 22.4413C23.8446 22.1631 23.8446 21.7119 23.5663 21.4337L20.1913 18.0587C19.9131 17.7804 19.4619 17.7804 19.1837 18.0587C18.9054 18.3369 18.9054 18.7881 19.1837 19.0663ZM13.5 15.9C14.3167 15.9 15.0941 15.7304 15.7988 15.4243L19.4073 16.9676C19.7691 17.1223 20.1879 16.9545 20.3426 16.5927C20.4973 16.2309 20.3295 15.8121 19.9677 15.6574L17.267 14.5024C18.4963 13.4435 19.275 11.8752 19.275 10.125C19.275 6.93556 16.6894 4.35 13.5 4.35C10.3106 4.35 7.725 6.93556 7.725 10.125C7.725 11.8858 8.5132 13.4626 9.75551 14.5217L6.08661 16.1893C5.02901 16.6701 4.35 17.7246 4.35 18.8863V19.6875C4.35 21.3236 5.67636 22.65 7.3125 22.65H12.9375C13.331 22.65 13.65 22.331 13.65 21.9375C13.65 21.544 13.331 21.225 12.9375 21.225H7.3125C6.46336 21.225 5.775 20.5366 5.775 19.6875V18.8863C5.775 18.2834 6.1274 17.7361 6.67628 17.4866L11.2074 15.427C11.9104 15.7314 12.6857 15.9 13.5 15.9ZM17.85 10.125C17.85 12.5274 15.9024 14.475 13.5 14.475C11.0976 14.475 9.15 12.5274 9.15 10.125C9.15 7.72256 11.0976 5.775 13.5 5.775C15.9024 5.775 17.85 7.72256 17.85 10.125Z" fill="#7C7474" stroke="#7C7474" stroke-width="0.3"/>
</svg>
