<?xml version="1.0" encoding="utf-8"?>
<!-- Generator: Adobe Illustrator 25.1.0, SVG Export Plug-In . SVG Version: 6.00 Build 0)  -->
<svg version="1.1" id="Слой_1" xmlns="http://www.w3.org/2000/svg" xmlns:xlink="http://www.w3.org/1999/xlink" x="0px" y="0px"
	 viewBox="0 0 27 27" enable-background="new 0 0 27 27" xml:space="preserve">
<g>
	<defs>
		<rect id="SVGID_1_" width="27" height="27"/>
	</defs>
	<clipPath id="SVGID_2_">
		<use xlink:href="#SVGID_1_"  overflow="visible"/>
	</clipPath>
	<g clip-path="url(#SVGID_2_)">
		<g>
			<path fill="#7C7474" d="M5.3,21.4L7.7,19c0.2-0.2,0.2-0.6,0-0.8c-0.2-0.2-0.6-0.2-0.8,0l-3.4,3.4c-0.2,0.2-0.2,0.6,0,0.8l3.4,3.4
				c0.2,0.2,0.6,0.2,0.8,0c0.2-0.2,0.2-0.6,0-0.8l-2.4-2.4h5.4c0.3,0,0.6-0.3,0.6-0.6s-0.3-0.6-0.6-0.6H5.3z M11.2,15.3
				c0.7,0.3,1.5,0.5,2.3,0.5c0.8,0,1.6-0.2,2.3-0.5l4.6,2.1c0.6,0.3,1,0.9,1,1.5v0.8c0,0.9-0.8,1.7-1.7,1.7h-5.6
				c-0.3,0-0.6,0.3-0.6,0.6s0.3,0.6,0.6,0.6h5.6c1.6,0,2.8-1.3,2.8-2.8v-0.8c0-1.1-0.6-2.1-1.6-2.6L17,14.6c1.3-1,2.2-2.6,2.2-4.4
				c0-3.1-2.5-5.6-5.6-5.6S7.9,7,7.9,10.1c0,1.8,0.8,3.4,2.1,4.4l-2.9,1.3c-0.3,0.1-0.4,0.5-0.3,0.7c0.1,0.3,0.5,0.4,0.7,0.3
				L11.2,15.3z M13.5,14.6c-2.5,0-4.5-2-4.5-4.5c0-2.5,2-4.5,4.5-4.5s4.5,2,4.5,4.5C18,12.6,16,14.6,13.5,14.6z"/>
			<defs>
				<filter id="Adobe_OpacityMaskFilter" filterUnits="userSpaceOnUse" x="3.1" y="4.2" width="19.7" height="22">
					<feColorMatrix  type="matrix" values="1 0 0 0 0  0 1 0 0 0  0 0 1 0 0  0 0 0 1 0"/>
				</filter>
			</defs>
			<mask maskUnits="userSpaceOnUse" x="3.1" y="4.2" width="19.7" height="22" id="path-1-outside-1_1_">
				<rect x="2.5" y="3.5" fill="#FFFFFF" filter="url(#Adobe_OpacityMaskFilter)" width="21" height="23"/>
				<path d="M5.3,21.4L7.7,19c0.2-0.2,0.2-0.6,0-0.8c-0.2-0.2-0.6-0.2-0.8,0l-3.4,3.4c-0.2,0.2-0.2,0.6,0,0.8l3.4,3.4
					c0.2,0.2,0.6,0.2,0.8,0c0.2-0.2,0.2-0.6,0-0.8l-2.4-2.4h5.4c0.3,0,0.6-0.3,0.6-0.6s-0.3-0.6-0.6-0.6H5.3z M11.2,15.3
					c0.7,0.3,1.5,0.5,2.3,0.5c0.8,0,1.6-0.2,2.3-0.5l4.6,2.1c0.6,0.3,1,0.9,1,1.5v0.8c0,0.9-0.8,1.7-1.7,1.7h-5.6
					c-0.3,0-0.6,0.3-0.6,0.6s0.3,0.6,0.6,0.6h5.6c1.6,0,2.8-1.3,2.8-2.8v-0.8c0-1.1-0.6-2.1-1.6-2.6L17,14.6c1.3-1,2.2-2.6,2.2-4.4
					c0-3.1-2.5-5.6-5.6-5.6S7.9,7,7.9,10.1c0,1.8,0.8,3.4,2.1,4.4l-2.9,1.3c-0.3,0.1-0.4,0.5-0.3,0.7c0.1,0.3,0.5,0.4,0.7,0.3
					L11.2,15.3z M13.5,14.6c-2.5,0-4.5-2-4.5-4.5c0-2.5,2-4.5,4.5-4.5s4.5,2,4.5,4.5C18,12.6,16,14.6,13.5,14.6z"/>
			</mask>
			<path mask="url(#path-1-outside-1_1_)" fill="none" stroke="#7C7474" stroke-width="0.6" d="M5.3,21.4L7.7,19
				c0.2-0.2,0.2-0.6,0-0.8c-0.2-0.2-0.6-0.2-0.8,0l-3.4,3.4c-0.2,0.2-0.2,0.6,0,0.8l3.4,3.4c0.2,0.2,0.6,0.2,0.8,0
				c0.2-0.2,0.2-0.6,0-0.8l-2.4-2.4h5.4c0.3,0,0.6-0.3,0.6-0.6s-0.3-0.6-0.6-0.6H5.3z M11.2,15.3c0.7,0.3,1.5,0.5,2.3,0.5
				c0.8,0,1.6-0.2,2.3-0.5l4.6,2.1c0.6,0.3,1,0.9,1,1.5v0.8c0,0.9-0.8,1.7-1.7,1.7h-5.6c-0.3,0-0.6,0.3-0.6,0.6s0.3,0.6,0.6,0.6h5.6
				c1.6,0,2.8-1.3,2.8-2.8v-0.8c0-1.1-0.6-2.1-1.6-2.6L17,14.6c1.3-1,2.2-2.6,2.2-4.4c0-3.1-2.5-5.6-5.6-5.6S7.9,7,7.9,10.1
				c0,1.8,0.8,3.4,2.1,4.4l-2.9,1.3c-0.3,0.1-0.4,0.5-0.3,0.7c0.1,0.3,0.5,0.4,0.7,0.3L11.2,15.3z M13.5,14.6c-2.5,0-4.5-2-4.5-4.5
				c0-2.5,2-4.5,4.5-4.5s4.5,2,4.5,4.5C18,12.6,16,14.6,13.5,14.6z"/>
		</g>
	</g>
</g>
</svg>
