<svg width="29" height="29" viewBox="0 0 29 29" fill="none" xmlns="http://www.w3.org/2000/svg">
<mask id="path-2-outside-1" maskUnits="userSpaceOnUse" x="4.5" y="4.5" width="21" height="23" fill="black">
<rect fill="white" x="4.5" y="4.5" width="21" height="23"/>
<path d="M20.125 22.375V19.5625C20.125 19.2518 20.3768 19 20.6875 19C20.9982 19 21.25 19.2518 21.25 19.5625V22.375H24.0625C24.3732 22.375 24.625 22.6268 24.625 22.9375C24.625 23.2482 24.3732 23.5 24.0625 23.5H21.25V26.3125C21.25 26.6232 20.9982 26.875 20.6875 26.875C20.3768 26.875 20.125 26.6232 20.125 26.3125V23.5H17.3125C17.0018 23.5 16.75 23.2482 16.75 22.9375C16.75 22.6268 17.0018 22.375 17.3125 22.375H20.125ZM16.7978 16.2608C16.0963 16.5752 15.3185 16.75 14.5 16.75C13.6831 16.75 12.9069 16.5759 12.2064 16.2627L7.61421 18.3501C7.01178 18.6239 6.625 19.2246 6.625 19.8863V20.6875C6.625 21.6195 7.38052 22.375 8.3125 22.375H13.9375C14.2482 22.375 14.5 22.6268 14.5 22.9375C14.5 23.2482 14.2482 23.5 13.9375 23.5H8.3125C6.7592 23.5 5.5 22.2408 5.5 20.6875V19.8863C5.5 18.7834 6.14463 17.7823 7.14868 17.3259L11.0374 15.5583C9.7211 14.5287 8.875 12.9257 8.875 11.125C8.875 8.0184 11.3934 5.5 14.5 5.5C17.6066 5.5 20.125 8.0184 20.125 11.125C20.125 12.917 19.287 14.5133 17.9815 15.5434L20.9087 16.7953C21.1943 16.9175 21.3268 17.2481 21.2047 17.5337C21.0825 17.8193 20.7519 17.9518 20.4663 17.8297L16.7978 16.2608ZM14.5 15.625C16.9853 15.625 19 13.6103 19 11.125C19 8.63972 16.9853 6.625 14.5 6.625C12.0147 6.625 10 8.63972 10 11.125C10 13.6103 12.0147 15.625 14.5 15.625Z"/>
</mask>
<path d="M20.125 22.375V19.5625C20.125 19.2518 20.3768 19 20.6875 19C20.9982 19 21.25 19.2518 21.25 19.5625V22.375H24.0625C24.3732 22.375 24.625 22.6268 24.625 22.9375C24.625 23.2482 24.3732 23.5 24.0625 23.5H21.25V26.3125C21.25 26.6232 20.9982 26.875 20.6875 26.875C20.3768 26.875 20.125 26.6232 20.125 26.3125V23.5H17.3125C17.0018 23.5 16.75 23.2482 16.75 22.9375C16.75 22.6268 17.0018 22.375 17.3125 22.375H20.125ZM16.7978 16.2608C16.0963 16.5752 15.3185 16.75 14.5 16.75C13.6831 16.75 12.9069 16.5759 12.2064 16.2627L7.61421 18.3501C7.01178 18.6239 6.625 19.2246 6.625 19.8863V20.6875C6.625 21.6195 7.38052 22.375 8.3125 22.375H13.9375C14.2482 22.375 14.5 22.6268 14.5 22.9375C14.5 23.2482 14.2482 23.5 13.9375 23.5H8.3125C6.7592 23.5 5.5 22.2408 5.5 20.6875V19.8863C5.5 18.7834 6.14463 17.7823 7.14868 17.3259L11.0374 15.5583C9.7211 14.5287 8.875 12.9257 8.875 11.125C8.875 8.0184 11.3934 5.5 14.5 5.5C17.6066 5.5 20.125 8.0184 20.125 11.125C20.125 12.917 19.287 14.5133 17.9815 15.5434L20.9087 16.7953C21.1943 16.9175 21.3268 17.2481 21.2047 17.5337C21.0825 17.8193 20.7519 17.9518 20.4663 17.8297L16.7978 16.2608ZM14.5 15.625C16.9853 15.625 19 13.6103 19 11.125C19 8.63972 16.9853 6.625 14.5 6.625C12.0147 6.625 10 8.63972 10 11.125C10 13.6103 12.0147 15.625 14.5 15.625Z" fill="#7C7474"/>
<path d="M20.125 22.375V19.5625C20.125 19.2518 20.3768 19 20.6875 19C20.9982 19 21.25 19.2518 21.25 19.5625V22.375H24.0625C24.3732 22.375 24.625 22.6268 24.625 22.9375C24.625 23.2482 24.3732 23.5 24.0625 23.5H21.25V26.3125C21.25 26.6232 20.9982 26.875 20.6875 26.875C20.3768 26.875 20.125 26.6232 20.125 26.3125V23.5H17.3125C17.0018 23.5 16.75 23.2482 16.75 22.9375C16.75 22.6268 17.0018 22.375 17.3125 22.375H20.125ZM16.7978 16.2608C16.0963 16.5752 15.3185 16.75 14.5 16.75C13.6831 16.75 12.9069 16.5759 12.2064 16.2627L7.61421 18.3501C7.01178 18.6239 6.625 19.2246 6.625 19.8863V20.6875C6.625 21.6195 7.38052 22.375 8.3125 22.375H13.9375C14.2482 22.375 14.5 22.6268 14.5 22.9375C14.5 23.2482 14.2482 23.5 13.9375 23.5H8.3125C6.7592 23.5 5.5 22.2408 5.5 20.6875V19.8863C5.5 18.7834 6.14463 17.7823 7.14868 17.3259L11.0374 15.5583C9.7211 14.5287 8.875 12.9257 8.875 11.125C8.875 8.0184 11.3934 5.5 14.5 5.5C17.6066 5.5 20.125 8.0184 20.125 11.125C20.125 12.917 19.287 14.5133 17.9815 15.5434L20.9087 16.7953C21.1943 16.9175 21.3268 17.2481 21.2047 17.5337C21.0825 17.8193 20.7519 17.9518 20.4663 17.8297L16.7978 16.2608ZM14.5 15.625C16.9853 15.625 19 13.6103 19 11.125C19 8.63972 16.9853 6.625 14.5 6.625C12.0147 6.625 10 8.63972 10 11.125C10 13.6103 12.0147 15.625 14.5 15.625Z" stroke="#7C7474" stroke-width="0.6" mask="url(#path-2-outside-1)"/>
<rect x="0.99925" y="0.99925" width="27.0015" height="27.0015" stroke="#7C7474" stroke-width="0.0015"/>
</svg>
