<svg width="29" height="29" viewBox="0 0 29 29" fill="none" xmlns="http://www.w3.org/2000/svg">
<path d="M19.975 19.5625V22.225H17.3125C16.919 22.225 16.6 22.544 16.6 22.9375C16.6 23.331 16.919 23.65 17.3125 23.65H19.975V26.3125C19.975 26.706 20.294 27.025 20.6875 27.025C21.081 27.025 21.4 26.706 21.4 26.3125V23.65H24.0625C24.456 23.65 24.775 23.331 24.775 22.9375C24.775 22.544 24.456 22.225 24.0625 22.225H21.4V19.5625C21.4 19.169 21.081 18.85 20.6875 18.85C20.294 18.85 19.975 19.169 19.975 19.5625ZM14.5 16.9C15.3167 16.9 16.0941 16.7304 16.7988 16.4243L20.4073 17.9676C20.7691 18.1223 21.1879 17.9545 21.3426 17.5927C21.4973 17.2309 21.3295 16.8121 20.9677 16.6574L18.267 15.5024C19.4963 14.4435 20.275 12.8752 20.275 11.125C20.275 7.93556 17.6894 5.35 14.5 5.35C11.3106 5.35 8.725 7.93556 8.725 11.125C8.725 12.8858 9.5132 14.4626 10.7555 15.5217L7.08661 17.1893C6.02901 17.6701 5.35 18.7246 5.35 19.8863V20.6875C5.35 22.3236 6.67636 23.65 8.3125 23.65H13.9375C14.331 23.65 14.65 23.331 14.65 22.9375C14.65 22.544 14.331 22.225 13.9375 22.225H8.3125C7.46336 22.225 6.775 21.5366 6.775 20.6875V19.8863C6.775 19.2834 7.1274 18.7361 7.67628 18.4866L12.2074 16.427C12.9104 16.7314 13.6857 16.9 14.5 16.9ZM18.85 11.125C18.85 13.5274 16.9024 15.475 14.5 15.475C12.0976 15.475 10.15 13.5274 10.15 11.125C10.15 8.72256 12.0976 6.775 14.5 6.775C16.9024 6.775 18.85 8.72256 18.85 11.125Z" fill="#7C7474" stroke="#7C7474" stroke-width="0.3"/>
<rect x="0.99925" y="0.99925" width="27.0015" height="27.0015" stroke="#7C7474" stroke-width="0.0015"/>
</svg>
